<svg width="27" height="26" viewBox="0 0 27 26" fill="none" xmlns="http://www.w3.org/2000/svg">
<path fill-rule="evenodd" clip-rule="evenodd" d="M15.7195 0.825374C14.3691 -0.275126 12.3936 -0.275124 11.0432 0.825374L9.81337 1.82762C9.2394 2.29536 8.52914 2.57943 7.78072 2.64054L6.17709 2.77148C4.41625 2.91526 3.01938 4.26397 2.87046 5.96409L2.73485 7.51242C2.67156 8.23503 2.37733 8.9208 1.89289 9.47499L0.854852 10.6624C-0.284952 11.9662 -0.28495 13.8736 0.854852 15.1774L1.89289 16.3648C2.37733 16.919 2.67156 17.6048 2.73485 18.3274L2.87046 19.8758C3.01938 21.5759 4.41625 22.9247 6.17709 23.0683L7.78072 23.1992C8.52914 23.2605 9.2394 23.5445 9.81339 24.0123L11.0432 25.0145C12.3936 26.1149 14.3691 26.1149 15.7195 25.0145L16.9493 24.0123C17.5233 23.5445 18.2336 23.2605 18.982 23.1992L20.5857 23.0683C22.3465 22.9247 23.7434 21.5759 23.8922 19.8758L24.0278 18.3274C24.0912 17.6048 24.3854 16.919 24.8699 16.3648L25.9079 15.1774C27.0476 13.8736 27.0476 11.9662 25.9079 10.6624L24.8699 9.47498C24.3854 8.9208 24.0912 8.23503 24.0278 7.51242L23.8922 5.96409C23.7434 4.26397 22.3465 2.91526 20.5857 2.77148L18.982 2.64054C18.2336 2.57943 17.5233 2.29536 16.9493 1.82762L15.7195 0.825374ZM19.973 10.5337C20.6101 9.91862 20.6101 8.92138 19.973 8.30631C19.3361 7.69122 18.3032 7.69122 17.6661 8.30631L11.5696 14.1926L9.0981 11.8063C8.46106 11.1912 7.42821 11.1912 6.79117 11.8063C6.15411 12.4214 6.15411 13.4186 6.79117 14.0337L10.4162 17.5336C11.0532 18.1487 12.0861 18.1487 12.7231 17.5336L19.973 10.5337Z" fill="#FF6600"/>
</svg>
