<svg width="181" height="47" viewBox="0 0 181 47" fill="none" xmlns="http://www.w3.org/2000/svg">
<path d="M80.3742 9.06763V12.8667H85.6419L87.6039 9.06763H80.3742Z" fill="#F26223"/>
<path d="M12.3686 29.3326C12.7718 29.9898 13.2914 30.5119 13.9454 30.8991C14.5994 31.2862 15.334 31.5653 16.1492 31.7363C16.9645 31.9074 17.8156 31.9884 18.6845 31.9884C19.3565 31.9884 20.0552 31.9344 20.7899 31.8353C21.5245 31.7363 22.1964 31.5472 22.8235 31.2772C23.4416 31.0071 23.9523 30.611 24.3554 30.0888C24.7586 29.5667 24.9557 28.9005 24.9557 28.0902C24.9557 26.9829 24.5346 26.1367 23.7014 25.5605C22.8683 24.9843 21.8201 24.5252 20.5659 24.1741C19.3117 23.823 17.9499 23.4989 16.4807 23.2108C15.0115 22.9227 13.6408 22.5176 12.3955 21.9954C11.1413 21.4733 10.0931 20.7441 9.25996 19.7988C8.41783 18.8535 8.00573 17.5391 8.00573 15.8556C8.00573 14.5413 8.30137 13.4159 8.88369 12.4707C9.46601 11.5254 10.2185 10.7602 11.1413 10.175C12.064 9.58981 13.1033 9.14868 14.2589 8.86059C15.4146 8.57251 16.5613 8.42847 17.6991 8.42847C19.1683 8.42847 20.53 8.5545 21.7664 8.80658C23.0027 9.05865 24.1046 9.49978 25.0542 10.121C26.0128 10.7421 26.7743 11.5884 27.3387 12.6417C27.9121 13.704 28.2435 15.0274 28.3421 16.6029H24.0598C23.9881 15.7656 23.7731 15.0634 23.4058 14.5143C23.0385 13.9561 22.5726 13.515 21.9993 13.1819C21.4259 12.8488 20.8078 12.6057 20.1179 12.4526C19.4281 12.2996 18.7383 12.2276 18.0395 12.2276C17.4034 12.2276 16.7584 12.2816 16.1044 12.3806C15.4504 12.4797 14.8592 12.6597 14.3216 12.9118C13.7841 13.1639 13.3541 13.506 13.0137 13.9201C12.6822 14.3432 12.512 14.8924 12.512 15.5676C12.512 16.3148 12.7718 16.927 13.2914 17.4131C13.811 17.8992 14.4739 18.3044 15.2713 18.6285C16.0776 18.9436 16.9734 19.2226 17.9768 19.4387C18.9802 19.6548 19.9836 19.8888 20.9869 20.1229C22.062 20.357 23.1012 20.645 24.1225 20.9872C25.1438 21.3202 26.0486 21.7704 26.837 22.3285C27.6254 22.8867 28.2614 23.5889 28.7452 24.4262C29.229 25.2724 29.4709 26.3167 29.4709 27.5591C29.4709 29.1435 29.1484 30.4579 28.4944 31.5022C27.8404 32.5465 26.9893 33.3928 25.9322 34.032C24.875 34.6712 23.6925 35.1213 22.3666 35.3734C21.0407 35.6254 19.7327 35.7515 18.4247 35.7515C16.9824 35.7515 15.6117 35.5984 14.3127 35.2923C13.0047 34.9863 11.858 34.4911 10.8457 33.7979C9.84227 33.1047 9.04495 32.1954 8.43575 31.0611C7.83552 29.9268 7.50404 28.5494 7.43237 26.9289H11.7146C11.7505 27.8742 11.9655 28.6754 12.3686 29.3326Z" fill="#23262F"/>
<path d="M39.2448 41.8462C38.761 42.7195 38.2235 43.4397 37.6412 43.9889C37.0589 44.547 36.4138 44.9431 35.7061 45.2042C34.9984 45.4563 34.1652 45.5823 33.1977 45.5823C32.696 45.5823 32.1943 45.5463 31.6926 45.4833C31.1909 45.4113 30.7071 45.2943 30.2323 45.1322V41.189C30.6355 41.3241 31.0476 41.4591 31.4597 41.5942C31.8807 41.7292 32.3018 41.7922 32.7408 41.7922C33.6098 41.7922 34.3175 41.5942 34.8461 41.189C35.3836 40.7839 35.8494 40.1988 36.2526 39.4245L38.0085 35.0312L27.7149 9.06763H32.5347L40.1138 30.4309H40.2123L47.4958 9.06763H52.011L40.723 38.6143C40.2213 39.8927 39.7286 40.964 39.2448 41.8462Z" fill="#23262F"/>
<path d="M56.0301 29.3326C56.4332 29.9898 56.9528 30.5119 57.6068 30.8991C58.2608 31.2862 58.9954 31.5653 59.8107 31.7363C60.6259 31.9074 61.477 31.9884 62.346 31.9884C63.0179 31.9884 63.7167 31.9344 64.4513 31.8353C65.1859 31.7363 65.8578 31.5472 66.4849 31.2772C67.1031 31.0071 67.6137 30.611 68.0169 30.0888C68.42 29.5667 68.6171 28.9005 68.6171 28.0902C68.6171 26.9829 68.196 26.1367 67.3629 25.5605C66.5297 24.9843 65.4815 24.5252 64.2273 24.1741C62.9731 23.823 61.6114 23.4989 60.1421 23.2108C58.6729 22.9227 57.3022 22.5176 56.057 21.9954C54.8027 21.4733 53.7546 20.7441 52.9214 19.7988C52.0793 18.8535 51.6672 17.5391 51.6672 15.8556C51.6672 14.5413 51.9628 13.4159 52.5451 12.4707C53.1274 11.5254 53.88 10.7602 54.8027 10.175C55.7255 9.58981 56.7647 9.14868 57.9204 8.86059C59.076 8.57251 60.2228 8.42847 61.3605 8.42847C62.8298 8.42847 64.1915 8.5545 65.4278 8.80658C66.6641 9.05865 67.766 9.49978 68.7156 10.121C69.6742 10.7421 70.4357 11.5884 71.0001 12.6417C71.5735 13.704 71.905 15.0274 72.0035 16.6029H67.7212C67.6496 15.7656 67.4346 15.0634 67.0672 14.5143C66.6999 13.9561 66.2341 13.515 65.6607 13.1819C65.0874 12.8488 64.4692 12.6057 63.7794 12.4526C63.0896 12.2996 62.3997 12.2276 61.692 12.2276C61.0559 12.2276 60.4109 12.2816 59.7569 12.3806C59.1029 12.4797 58.5116 12.6597 57.9741 12.9118C57.4366 13.1639 57.0066 13.506 56.6661 13.9201C56.3347 14.3432 56.1645 14.8924 56.1645 15.5676C56.1645 16.3148 56.4243 16.927 56.9439 17.4131C57.4635 17.8992 58.1264 18.3044 58.9237 18.6285C59.7211 18.9436 60.6259 19.2226 61.6293 19.4387C62.6327 19.6548 63.636 19.8888 64.6394 20.1229C65.7145 20.357 66.7537 20.645 67.775 20.9872C68.7963 21.3202 69.7011 21.7704 70.4895 22.3285C71.2778 22.8867 71.9139 23.5889 72.3977 24.4262C72.8815 25.2724 73.1233 26.3167 73.1233 27.5591C73.1233 29.1435 72.8008 30.4579 72.1468 31.5022C71.4929 32.5465 70.6418 33.3928 69.5846 34.032C68.5275 34.6712 67.345 35.1213 66.0191 35.3734C64.6932 35.6254 63.3852 35.7515 62.0772 35.7515C60.6349 35.7515 59.2642 35.5984 57.9652 35.2923C56.6572 34.9863 55.5105 34.4911 54.5071 33.7979C53.5037 33.1047 52.6974 32.1954 52.0972 31.0611C51.497 29.9268 51.1655 28.5494 51.0938 26.9289H55.3761C55.403 27.8742 55.6269 28.6754 56.0301 29.3326Z" fill="#23262F"/>
<path d="M80.4976 9.05767V12.8478V29.0615C80.4976 29.5657 80.5424 29.9708 80.6231 30.2769C80.7037 30.583 80.8649 30.8171 81.0979 30.9881C81.3308 31.1592 81.6533 31.2672 82.0744 31.3212C82.4865 31.3752 83.033 31.3932 83.6959 31.3932H87.0554L85.0935 35.1833H82.3879C81.286 35.1833 80.3453 35.1113 79.557 34.9583C78.7686 34.8052 78.1415 34.5261 77.6488 34.121C77.165 33.7159 76.8066 33.1487 76.5737 32.4015C76.3408 31.6633 76.2243 30.682 76.2243 29.4667V12.8478H73.7696V9.05767H76.2243V3.21496L80.5066 1.23438V9.05767H80.4976Z" fill="#23262F"/>
<path d="M105.598 16.727C105.213 15.8177 104.693 15.0345 104.039 14.3683C103.385 13.7111 102.615 13.1889 101.728 12.8018C100.841 12.4147 99.8643 12.2167 98.7893 12.2167C97.6874 12.2167 96.6929 12.4147 95.806 12.8018C94.9191 13.1889 94.1576 13.7201 93.5215 14.3953C92.8855 15.0705 92.3838 15.8537 92.0165 16.745C91.6492 17.6362 91.4342 18.5905 91.3625 19.6078H106.27C106.216 18.5995 105.983 17.6362 105.598 16.727ZM106.619 33.5169C104.675 35.0023 102.238 35.7406 99.2999 35.7406C97.2305 35.7406 95.4298 35.4075 93.9068 34.7323C92.3838 34.0571 91.1027 33.1118 90.0724 31.8964C89.0332 30.6811 88.2628 29.2316 87.7432 27.5482C87.2235 25.8647 86.9279 24.0281 86.8652 22.0385C86.8652 20.049 87.1698 18.2304 87.77 16.5739C88.3703 14.9265 89.2124 13.486 90.3054 12.2797C91.3894 11.0643 92.6794 10.119 94.1666 9.44384C95.6537 8.76864 97.2842 8.43555 99.058 8.43555C101.369 8.43555 103.278 8.91269 104.801 9.87597C106.324 10.8393 107.542 12.0636 108.465 13.54C109.387 15.0255 110.024 16.646 110.373 18.4015C110.722 20.157 110.866 21.8225 110.803 23.4069H91.3714C91.3356 24.5503 91.47 25.6396 91.7746 26.6659C92.0702 27.6922 92.563 28.6015 93.2259 29.3937C93.8978 30.1859 94.7489 30.8161 95.7791 31.2842C96.8184 31.7524 98.0368 31.9865 99.4433 31.9865C101.244 31.9865 102.731 31.5633 103.878 30.7261C105.034 29.8888 105.795 28.6015 106.162 26.891H110.373C109.809 29.8168 108.554 32.0315 106.619 33.5169Z" fill="#23262F"/>
<path d="M117.161 7.45557V12.8842H117.25C119.194 9.91329 121.998 8.42785 125.654 8.42785C127.266 8.42785 128.726 8.76095 130.034 9.43615C131.342 10.1113 132.265 11.2547 132.803 12.8752C133.672 11.4617 134.818 10.3634 136.252 9.58919C137.676 8.81497 139.244 8.42785 140.955 8.42785C142.263 8.42785 143.446 8.57189 144.503 8.85998C145.56 9.14806 146.465 9.58919 147.217 10.2014C147.97 10.8045 148.561 11.5878 148.973 12.5511C149.394 13.5143 149.6 14.6667 149.6 16.0171V35.1837H145.318V18.0427C145.318 17.2324 145.255 16.4762 145.121 15.765C144.987 15.0538 144.736 14.4416 144.368 13.9195C144.001 13.3973 143.49 12.9832 142.836 12.6771C142.182 12.371 141.34 12.218 140.301 12.218C138.187 12.218 136.529 12.8211 135.32 14.0365C134.111 15.2519 133.51 16.8723 133.51 18.8889V35.1747H129.228V18.0427C129.228 17.1964 129.156 16.4222 129.004 15.72C128.852 15.0088 128.592 14.3966 128.225 13.8744C127.857 13.3523 127.365 12.9472 126.738 12.6591C126.119 12.371 125.322 12.227 124.346 12.227C123.1 12.227 122.043 12.479 121.147 12.9832C120.26 13.4873 119.535 14.0995 118.988 14.8017C118.433 15.5129 118.03 16.2421 117.779 16.9984C117.528 17.7546 117.403 18.3848 117.403 18.8979V35.1837H113.12V9.43615L117.161 7.45557Z" fill="#23262F"/>
<path d="M156.429 29.3326C156.832 29.9898 157.352 30.5119 158.006 30.8991C158.66 31.2862 159.394 31.5653 160.21 31.7363C161.025 31.9074 161.876 31.9884 162.745 31.9884C163.417 31.9884 164.116 31.9344 164.85 31.8353C165.585 31.7363 166.257 31.5472 166.884 31.2772C167.502 31.0071 168.013 30.611 168.416 30.0888C168.819 29.5667 169.016 28.9005 169.016 28.0902C169.016 26.9829 168.595 26.1367 167.762 25.5605C166.929 24.9843 165.881 24.5252 164.626 24.1741C163.372 23.823 162.01 23.4989 160.541 23.2108C159.072 22.9227 157.701 22.5176 156.456 21.9954C155.202 21.4733 154.154 20.7441 153.32 19.7988C152.478 18.8535 152.066 17.5391 152.066 15.8556C152.066 14.5413 152.362 13.4159 152.944 12.4707C153.526 11.5254 154.279 10.7602 155.202 10.175C156.124 9.58981 157.164 9.14868 158.319 8.86059C159.475 8.57251 160.622 8.42847 161.759 8.42847C163.229 8.42847 164.59 8.5545 165.827 8.80658C167.063 9.05865 168.165 9.49978 169.115 10.121C170.073 10.7421 170.835 11.5884 171.399 12.6417C171.972 13.704 172.304 15.0274 172.402 16.6029H168.12C168.049 15.7656 167.834 15.0634 167.466 14.5143C167.099 13.9561 166.633 13.515 166.06 13.1819C165.486 12.8488 164.868 12.6057 164.178 12.4526C163.489 12.2996 162.799 12.2276 162.091 12.2276C161.455 12.2276 160.81 12.2816 160.156 12.3806C159.502 12.4797 158.911 12.6597 158.373 12.9118C157.836 13.1639 157.406 13.506 157.065 13.9201C156.734 14.3432 156.563 14.8924 156.563 15.5676C156.563 16.3148 156.823 16.927 157.343 17.4131C157.862 17.8992 158.525 18.3044 159.323 18.6285C160.12 18.9436 161.025 19.2226 162.028 19.4387C163.032 19.6548 164.035 19.8888 165.038 20.1229C166.113 20.357 167.153 20.645 168.174 20.9872C169.195 21.3202 170.1 21.7704 170.888 22.3285C171.677 22.8867 172.313 23.5889 172.797 24.4262C173.28 25.2724 173.522 26.3167 173.522 27.5591C173.522 29.1435 173.2 30.4579 172.546 31.5022C171.892 32.5465 171.041 33.3928 169.984 34.032C168.926 34.6712 167.744 35.1213 166.418 35.3734C165.092 35.6254 163.784 35.7515 162.476 35.7515C161.034 35.7515 159.663 35.5984 158.364 35.2923C157.056 34.9863 155.909 34.4911 154.897 33.7979C153.894 33.1047 153.087 32.1954 152.487 31.0611C151.887 29.9268 151.555 28.5494 151.484 26.9289H155.766C155.811 27.8742 156.026 28.6754 156.429 29.3326Z" fill="#23262F"/>
</svg>
