<svg width="86" height="61" viewBox="0 0 86 61" fill="none" xmlns="http://www.w3.org/2000/svg">
<path d="M62.35 30.5C68.284 30.5 73.057 25.62 73.057 19.6071C73.057 13.5943 68.284 8.71429 62.35 8.71429C56.416 8.71429 51.6 13.5943 51.6 19.6071C51.6 25.62 56.416 30.5 62.35 30.5ZM30.1 26.1429C37.238 26.1429 42.957 20.3043 42.957 13.0714C42.957 5.83857 37.238 0 30.1 0C22.962 0 17.2 5.83857 17.2 13.0714C17.2 20.3043 22.962 26.1429 30.1 26.1429ZM62.35 39.2143C54.481 39.2143 38.7 43.2229 38.7 51.1964V56.6429C38.7 59.0393 40.635 61 43 61H81.7C84.065 61 86 59.0393 86 56.6429V51.1964C86 43.2229 70.219 39.2143 62.35 39.2143ZM30.1 34.8571C20.081 34.8571 0 39.955 0 50.1071V56.6429C0 59.0393 1.935 61 4.3 61H30.1V51.1964C30.1 47.4929 31.519 41.0007 40.291 36.0771C36.55 35.2929 32.938 34.8571 30.1 34.8571Z" fill="black"/>
</svg>
